<svg id="Layer_1" data-name="Layer 1" xmlns="http://www.w3.org/2000/svg" xmlns:xlink="http://www.w3.org/1999/xlink" viewBox="0 0 289.96 66.97"><defs><style>.cls-1{fill:none;}.cls-2{clip-path:url(#clip-path);}.cls-3{fill:#28458e;}.cls-4{fill:#0096d6;}.cls-5{fill:#eb7b30;}.cls-6{fill:#00984a;}.cls-7{fill:#df002c;}</style><clipPath id="clip-path" transform="translate(-1586.82 -23.03)"><rect class="cls-1" x="1586.82" y="23.03" width="289.96" height="66.96"/></clipPath></defs><title>DialogueTemplate</title><g class="cls-2"><path class="cls-3" d="M1661.24,66.58H1668c2.62,0,3.61.9,3.61,3.12s-1,3-3.61,3h-6.71V66.58ZM1650.84,89h10.4v-9.1h11.14c7.37,0,10-4.34,10-10,0-6.52-2.73-10.21-10.1-10.21h-21.46V89Z" transform="translate(-1586.82 -23.03)"/><polygon class="cls-3" points="99.02 36.67 127 36.67 127 43.8 109.41 43.8 109.41 47.74 125.75 47.74 125.75 54.87 109.41 54.87 109.41 58.81 127 58.81 127 65.94 99.02 65.94 99.02 36.67"/><path class="cls-3" d="M1728.56,66.58h6.71c2.62,0,3.61.9,3.61,3.12s-1,3-3.61,3h-6.71V66.58ZM1718.17,89h10.4v-9.1h11.13c7.38,0,10-4.34,10-10,0-6.52-2.73-10.21-10.1-10.21h-21.46V89Z" transform="translate(-1586.82 -23.03)"/><path class="cls-3" d="M1759.79,76.55c-5.09-.86-7.19-4.14-7.19-8.24,0-7.58,6.67-9.63,15.22-9.63,11.72,0,16.55,3.4,16.92,9.59h-12.09a2.39,2.39,0,0,0-1.58-2.34,7.61,7.61,0,0,0-3.24-.61c-3.1,0-4.17.86-4.17,2.09a1.37,1.37,0,0,0,1.36,1.52l12.42,2c5.24,0.86,8.48,3.57,8.48,8.53,0,7.14-5.24,10.5-16.92,10.5-8,0-16.74-1.23-16.77-9.84h12.53a2.3,2.3,0,0,0,1.11,2.09,7.71,7.71,0,0,0,3.54.62c3.24,0,4.13-1,4.13-2.38a2,2,0,0,0-1.88-2Z" transform="translate(-1586.82 -23.03)"/><rect class="cls-3" x="202.51" y="36.67" width="10.4" height="29.27"/><path class="cls-3" d="M1838.25,77.57c-0.66,3.85-1.84,7-4.43,9.1S1827.3,90,1821,90s-18-.49-18-15.66,11.69-15.66,18-15.66,15.93,0.9,17.29,12.5h-11.72c-0.3-2.09-1.55-5.13-5.57-5.13-4.24,0-6.93,2.34-6.93,8.28s2.62,8.28,6.42,8.28c3.28,0,5.24-1.52,6.08-5h11.72Z" transform="translate(-1586.82 -23.03)"/><path class="cls-3" d="M1851.86,74.34c0-5.95,2.69-8.28,6.93-8.28s6.93,2.34,6.93,8.28-2.69,8.28-6.93,8.28-6.93-2.34-6.93-8.28m-11.06,0c0,15.16,11.69,15.66,18,15.66s18-.49,18-15.66-11.69-15.66-18-15.66-18,.49-18,15.66" transform="translate(-1586.82 -23.03)"/><path class="cls-3" d="M1635.13,60c0.67-14-11.44-29.85-27.95-31.81l0-.19c16.28,0,28.75,15.07,28.75,27a17.93,17.93,0,0,1-.56,5.12Zm-1,1.78a26.55,26.55,0,0,1-4,3.92c-2.94-16.88-15.34-31.64-24.11-36l-0.19.13c8.82,7.24,19.34,21.3,23.43,36.48a34.23,34.23,0,0,1-6.72,3.85c-8.32-9.49-16.08-27.8-18.58-39.41l-0.26.08c0.06,11.28,8.06,30.42,17.82,39.76a33.65,33.65,0,0,1-6.94,1.92c-9.36-3.71-16-15.58-16-27.74a31.6,31.6,0,0,1,2.89-13.86l-0.2-.08c-0.57.86-4.11,5.77-4.11,14.34,0,13.75,6.78,24.26,15.78,27.57a31,31,0,0,1-9.65-.45l-0.07.21a24.54,24.54,0,0,0,9.21,1.73,25.65,25.65,0,0,0,22-12.33Z" transform="translate(-1586.82 -23.03)"/><path class="cls-4" d="M1611.28,23c-8.55,0-18.57,6.17-18.57,11.81,0,2.18,2,4,6.12,4,9.58,0,18.49-6.58,18.49-11.7,0-2.69-2.59-4.12-6-4.12m3.41,4c0,4.32-8.29,9.59-15.22,9.59-3.06,0-4.71-1.21-4.71-3.19,0-4.38,8.38-9.57,14.88-9.57,4.24,0,5.05,2.16,5.05,3.17" transform="translate(-1586.82 -23.03)"/><path class="cls-5" d="M1589.31,37.44a9.56,9.56,0,0,0-1.2,4.23c0,3.58,3.62,6.9,10.27,6.9,12.8,0,27.58-9.42,27.58-18.16,0-3.92-3.72-6.06-6.3-6.5l0,0.15a5.43,5.43,0,0,1,3.74,5.12c0,7-13.05,16.46-26.06,16.46-5,0-8.11-2.46-8.11-6a7.05,7.05,0,0,1,.3-2.09Z" transform="translate(-1586.82 -23.03)"/><path class="cls-6" d="M1631.23,31.07a6.79,6.79,0,0,1,2.46,5.34c0,11.33-17.75,22.46-33.44,22.46-9.36,0-13.62-4.62-13.43-8.72H1587c0.37,2.13,3.41,5.94,11.59,5.94,15.71,0,33.25-11.53,33.25-21.62a6.76,6.76,0,0,0-.74-3.29Z" transform="translate(-1586.82 -23.03)"/><path class="cls-7" d="M1637.16,41.64a9.48,9.48,0,0,1,.46,3c0,12.6-18,23.39-33.58,23.39-8,0-12.24-3.9-13.12-5.49l0.14-.11c2.22,1.95,6.61,3.42,11.72,3.42,13.8,0,34.38-10.49,34.2-24.19Z" transform="translate(-1586.82 -23.03)"/></g></svg>